<svg id="Layer_1" data-name="Layer 1" xmlns="http://www.w3.org/2000/svg" viewBox="0 0 224 46.42"><defs><style>.cls-1{fill:#fff;}</style></defs><path class="cls-1" d="M1,34c0-.11.05-.21.06-.32.07-1.56.1-3.13.23-4.7A27.18,27.18,0,0,1,3,20.86a11.56,11.56,0,0,1,8.58-7.26,25,25,0,0,1,6.57-.55,23.27,23.27,0,0,1,5.45.77,11.56,11.56,0,0,1,8.15,7.85A26.05,26.05,0,0,1,33,27a70,70,0,0,1,.43,9.82c0,1.76-.12,3.52-.26,5.28a27.46,27.46,0,0,1-1.75,8.3,11.56,11.56,0,0,1-8.69,7.3,19.59,19.59,0,0,1-4.17.52c-1.36,0-2.71,0-4.06-.08A14.92,14.92,0,0,1,8.07,56.3,11.71,11.71,0,0,1,3,50.07,24.92,24.92,0,0,1,1.6,44.55a56.21,56.21,0,0,1-.53-7.33c0-.22-.05-.43-.07-.64Zm20.94,1.58h-.05c0-.15,0-.31,0-.46a3.14,3.14,0,0,0-2.57-3.22,8.81,8.81,0,0,0-4.27,0,3,3,0,0,0-2.44,2.55,8.35,8.35,0,0,0,0,1.87A3.13,3.13,0,0,0,15,39.26a8.4,8.4,0,0,0,4.61,0A2.94,2.94,0,0,0,21.74,37,13.85,13.85,0,0,0,21.94,35.56Z" transform="translate(-1 -12.79)"/><path class="cls-1" d="M36.73,48.42l.42-4.49c.16-1.57.35-3.13.47-4.7a38.4,38.4,0,0,0,.17-4.15c-.06-1.86-.22-3.71-.4-5.56a54.48,54.48,0,0,1-.6-7.33,14.21,14.21,0,0,1,.64-4,6.72,6.72,0,0,1,5.3-4.8,15.67,15.67,0,0,1,4.68-.34,19.08,19.08,0,0,1,2.82.36,5,5,0,0,1,4,4,21.21,21.21,0,0,1,.46,3.36c.11,1.66.07,3.32.16,5a14.47,14.47,0,0,0,.91,4.69,5.7,5.7,0,0,0,.9,1.52.89.89,0,0,0,1.64-.33,7.8,7.8,0,0,0,.33-1.87,9.54,9.54,0,0,0-.8-4.46,13,13,0,0,1-1.1-3.44,12.51,12.51,0,0,1,.41-5.83,4.29,4.29,0,0,1,4-3,8.67,8.67,0,0,1,3.4.31,6.31,6.31,0,0,1,4.12,4,13.31,13.31,0,0,1,.91,4.49A34.1,34.1,0,0,1,69.14,28a59.52,59.52,0,0,0-.49,10.59c.13,3.24.51,6.48.41,9.73a16.4,16.4,0,0,1-1,5.71,6.2,6.2,0,0,1-5.37,4A14.19,14.19,0,0,1,58,57.91a6.43,6.43,0,0,1-5-4.46,14,14,0,0,1-.78-3.83c-.1-1.61-.12-3.23-.2-4.84a15.46,15.46,0,0,0-1-5,4.91,4.91,0,0,0-.85-1.4,1,1,0,0,0-1.66.26A5.47,5.47,0,0,0,48,40.79a9,9,0,0,0,.93,4.68A12.26,12.26,0,0,1,50,48.58a12.49,12.49,0,0,1,.08,3.4,9.59,9.59,0,0,1-.66,2.93A5,5,0,0,1,45,58.14a8.67,8.67,0,0,1-3.25-.29,6,6,0,0,1-3.87-3.62,12.85,12.85,0,0,1-1-4.44l-.06-1.36Z" transform="translate(-1 -12.79)"/><path class="cls-1" d="M175.35,13.88a35.85,35.85,0,0,1,6.47.33,18,18,0,0,1,5.37,1.53A8.38,8.38,0,0,1,192,22a21.47,21.47,0,0,1,.2,5.49,12.29,12.29,0,0,1-.74,3.7A7.51,7.51,0,0,1,187.78,35a9.12,9.12,0,0,0-1,.6,1.78,1.78,0,0,0-.33,2.2,1.25,1.25,0,0,0,.82.48,9.54,9.54,0,0,1,2.7.9,5.43,5.43,0,0,1,2.82,3.95,17.79,17.79,0,0,1,.22,5.35A11.65,11.65,0,0,1,191.72,53a10.19,10.19,0,0,1-5.4,4.55A22.15,22.15,0,0,1,181,58.88a50.63,50.63,0,0,1-8.07.3,24.51,24.51,0,0,1-5.46-.68,7.23,7.23,0,0,1-5.66-5.76,15.08,15.08,0,0,1-.44-3.59c0-2.18.13-4.35.24-6.52a87.87,87.87,0,0,0,.19-8.89c-.11-2.21-.31-4.42-.41-6.64a24.57,24.57,0,0,1,.46-7,7.09,7.09,0,0,1,5.51-5.51,23.93,23.93,0,0,1,4.9-.7C173.29,13.84,174.32,13.88,175.35,13.88Zm.74,32.81,0,0c.41,0,.82,0,1.22-.09a3.83,3.83,0,0,0,1.76-.61,2.83,2.83,0,0,0,1.1-2.34,2.58,2.58,0,0,0-2-2.86,7,7,0,0,0-1.21-.22,8,8,0,0,0-3.05.25,2.13,2.13,0,0,0-1.57,1.69,5.5,5.5,0,0,0,0,2.25,2,2,0,0,0,1.56,1.64C174.64,46.52,175.37,46.58,176.09,46.69Zm.39-19.44c-.69.05-1.17.07-1.66.12a2.15,2.15,0,0,0-2.18,2,9.42,9.42,0,0,0-.06,1.84,1.94,1.94,0,0,0,1.68,1.94,7.35,7.35,0,0,0,3.81-.16,2.88,2.88,0,0,0,2.24-2.6c.13-1.53-.41-2.51-1.91-2.84A19.15,19.15,0,0,0,176.48,27.25Z" transform="translate(-1 -12.79)"/><path class="cls-1" d="M104.78,21.64a17.35,17.35,0,0,1,.65-4.36,5.54,5.54,0,0,1,3.93-4,11.52,11.52,0,0,1,5.77-.28,5.9,5.9,0,0,1,4.64,4.54,14.59,14.59,0,0,1,.44,4.56,49.58,49.58,0,0,1-1,7,17,17,0,0,0-.43,4.61,4.79,4.79,0,0,0,.16.92,2.24,2.24,0,0,0,2.77,1.6,2.14,2.14,0,0,0,2-2.07,11.28,11.28,0,0,0-.11-3.33c-.3-1.86-.68-3.71-1-5.58a19.9,19.9,0,0,1,0-7,7.23,7.23,0,0,1,1.58-3.41,6,6,0,0,1,3.94-2,12.14,12.14,0,0,1,5.08.4,5.76,5.76,0,0,1,4.07,4.54,16.17,16.17,0,0,1,.33,5.67c-.18,1.63-.41,3.24-.57,4.87-.11,1.11-.13,2.24-.22,3.37-.15,1.91-.3,3.83-.52,5.74a48.36,48.36,0,0,1-1.69,8.34,32.12,32.12,0,0,1-2.4,6.29,10.8,10.8,0,0,1-4,4.38,11.39,11.39,0,0,1-4.54,1.43,22.24,22.24,0,0,1-4.16.07,10.45,10.45,0,0,1-9.09-5.81,34.89,34.89,0,0,1-2.51-6.7,48,48,0,0,1-1.69-8.57c-.25-2.41-.39-4.83-.6-7.24-.14-1.56-.32-3.12-.47-4.68C105,23.88,104.88,22.76,104.78,21.64Z" transform="translate(-1 -12.79)"/><path class="cls-1" d="M212.2,12.82c1.62.1,3.39.17,5.14.33a13.4,13.4,0,0,1,3.84.88,4.91,4.91,0,0,1,3.16,4.17,20.21,20.21,0,0,1,0,5.27,6.45,6.45,0,0,1-1.17,3.35,2.63,2.63,0,0,1-2.13,1,19.45,19.45,0,0,1-4.86-.68,11.34,11.34,0,0,0-3.67-.3,2.28,2.28,0,0,0-2.2,2.25,5.85,5.85,0,0,0,.14,1.57,1.64,1.64,0,0,0,1.64,1.22,12,12,0,0,0,4.22-.88,23,23,0,0,1,2.93-.77,2.79,2.79,0,0,1,3.63,2.35,12.62,12.62,0,0,1-.14,6.37,3.76,3.76,0,0,1-.32.74,2.54,2.54,0,0,1-3,1.42A16.67,16.67,0,0,1,216.09,40a11.14,11.14,0,0,0-3-.87,4.83,4.83,0,0,0-1.26,0,1.73,1.73,0,0,0-1.47,1.76,5.21,5.21,0,0,0,.11,1.67,2.31,2.31,0,0,0,2.08,1.77,11.45,11.45,0,0,0,4-.37,24.29,24.29,0,0,1,5-.69,3,3,0,0,1,3,2,7.91,7.91,0,0,1,.5,2.19,16,16,0,0,1-.51,5.68,5.92,5.92,0,0,1-4.18,4A18.93,18.93,0,0,1,216,58a54,54,0,0,1-6.36.18,26,26,0,0,1-6.92-.9A7.62,7.62,0,0,1,198.13,54a10.4,10.4,0,0,1-1.2-3.46,32,32,0,0,1-.28-7.63c.17-2.59.37-5.18.45-7.77a36.12,36.12,0,0,0-.23-4,57.06,57.06,0,0,1-.26-7.16,22.24,22.24,0,0,1,.7-4.73,7.39,7.39,0,0,1,5.39-5.41,20.36,20.36,0,0,1,4.65-.77C208.92,12.93,210.49,12.88,212.2,12.82Z" transform="translate(-1 -12.79)"/><path class="cls-1" d="M87.12,58.14a44.45,44.45,0,0,1-7.38-.52,13.61,13.61,0,0,1-3.45-1.1,7.28,7.28,0,0,1-3.88-5.09,21.69,21.69,0,0,1-.58-4.82,63.16,63.16,0,0,1,.3-6.87,42.66,42.66,0,0,0,.21-6.19c-.1-1.54-.25-3.08-.36-4.63a39.27,39.27,0,0,1,0-5.74,23,23,0,0,1,.63-4,7.43,7.43,0,0,1,5.64-5.56A20,20,0,0,1,82.81,13c2.33-.06,4.66-.1,7,0a21.52,21.52,0,0,1,5.75.76,9.35,9.35,0,0,1,1,.36,4.79,4.79,0,0,1,3,4.07,18.49,18.49,0,0,1-.16,6.55,8,8,0,0,1-.26.87,3.12,3.12,0,0,1-3.58,2.27A35.36,35.36,0,0,1,91,27a9.41,9.41,0,0,0-3.26-.18,2.28,2.28,0,0,0-2.14,2.33,5.17,5.17,0,0,0,.14,1.47,1.68,1.68,0,0,0,1.64,1.25,9.48,9.48,0,0,0,3.37-.57c1.12-.36,2.24-.73,3.38-1a5.44,5.44,0,0,1,1.71-.1,2.32,2.32,0,0,1,2,1.44,6.77,6.77,0,0,1,.56,2.25,13.12,13.12,0,0,1-.18,4.33,6.76,6.76,0,0,1-.59,1.57,2.5,2.5,0,0,1-2.82,1.31A15.91,15.91,0,0,1,91.53,40a12.08,12.08,0,0,0-3.68-1,1.89,1.89,0,0,0-2.27,1.83,4.82,4.82,0,0,0,0,1.42,2.37,2.37,0,0,0,2.18,2,11.24,11.24,0,0,0,4-.36,22.23,22.23,0,0,1,5-.69A3,3,0,0,1,99.63,45a6.55,6.55,0,0,1,.62,2.64,17.8,17.8,0,0,1-.4,5,6.07,6.07,0,0,1-4.56,4.59,18.58,18.58,0,0,1-4.18.72C89.6,58,88.08,58.09,87.12,58.14Z" transform="translate(-1 -12.79)"/><path class="cls-1" d="M141.09,48.41c.18-1.66.32-3.33.55-5A49.07,49.07,0,0,0,142.22,33c-.15-1.92-.42-3.82-.67-5.73a29.36,29.36,0,0,1-.34-6.14,11.53,11.53,0,0,1,1.37-4.83A6.41,6.41,0,0,1,147.15,13a10.07,10.07,0,0,1,4.47.1,6.67,6.67,0,0,1,4.71,4.44,14.26,14.26,0,0,1,.84,4.57,31.77,31.77,0,0,1-.5,5.84,47.26,47.26,0,0,0-.66,7.88,53.25,53.25,0,0,0,.55,6.55,37.76,37.76,0,0,1,.61,7,11.84,11.84,0,0,1-1.43,5.52A6.31,6.31,0,0,1,151,58.07a11.18,11.18,0,0,1-4.35-.16,6.5,6.5,0,0,1-4.68-4.48,14,14,0,0,1-.73-5Z" transform="translate(-1 -12.79)"/></svg>