<svg width="42" height="40" viewBox="0 0 42 40" fill="none" xmlns="http://www.w3.org/2000/svg">
<path d="M21.3871 23.0507C21.3871 22.627 21.0482 22.288 20.6244 22.288C20.2007 22.288 19.8617 22.627 19.8617 23.0507C19.8617 23.4744 20.2007 23.8134 20.6244 23.8134C21.0482 23.8134 21.3871 23.4744 21.3871 23.0507ZM21.3871 25.2541C21.3871 24.8303 21.0482 24.4914 20.6244 24.4914C20.2007 24.4914 19.8617 24.8303 19.8617 25.2541C19.8617 25.6778 20.2007 26.0168 20.6244 26.0168C21.0482 26.0168 21.3871 25.6354 21.3871 25.2541ZM21.3871 27.4151C21.3871 26.9914 21.0482 26.6524 20.6244 26.6524C20.2007 26.6524 19.8617 26.9914 19.8617 27.4151C19.8617 27.8388 20.2007 28.1778 20.6244 28.1778C21.0482 28.1778 21.3871 27.8388 21.3871 27.4151ZM21.1753 20.3388C21.0482 20.2117 20.8363 20.127 20.6668 20.127C20.4549 20.127 20.2854 20.2117 20.1583 20.3388C20.0312 20.4659 19.9465 20.6778 19.9465 20.8473C19.9465 21.0592 20.0312 21.2287 20.1583 21.3558C20.2854 21.4829 20.4973 21.5676 20.6668 21.5676C20.8787 21.5676 21.0482 21.4829 21.1753 21.3558C21.3024 21.2287 21.3871 21.0168 21.3871 20.8473C21.3871 20.6778 21.3024 20.5083 21.1753 20.3388ZM22.8702 27.9659C22.5312 27.7541 22.0651 27.8388 21.8532 28.1778C21.6414 28.5168 21.7261 28.9829 22.0651 29.1948C22.4041 29.4066 22.8702 29.3219 23.0821 28.9829C23.3363 28.6863 23.2092 28.2202 22.8702 27.9659ZM24.7346 29.1524C24.3956 28.9405 23.9295 29.0253 23.7176 29.3642C23.5058 29.7032 23.5905 30.1693 23.9295 30.3812C24.2685 30.5931 24.7346 30.5083 24.9465 30.1693C25.1583 29.8303 25.0736 29.4066 24.7346 29.1524ZM26.5566 30.3388C26.2176 30.1269 25.7515 30.2117 25.5397 30.5507C25.3278 30.8897 25.4126 31.3558 25.7515 31.5676C26.0905 31.7795 26.5566 31.6947 26.7685 31.3558C26.9804 31.0168 26.8956 30.5507 26.5566 30.3388ZM18.1668 29.0252C18.3787 29.3642 18.8448 29.4914 19.1837 29.2371C19.5227 29.0252 19.6498 28.5592 19.3956 28.2202C19.1837 27.8812 18.7176 27.7541 18.3787 28.0083C18.0821 28.2202 17.9549 28.6863 18.1668 29.0252ZM16.3448 30.2117C16.5566 30.5507 17.0227 30.6778 17.3617 30.4236C17.7007 30.2117 17.8278 29.7456 17.5736 29.4066C17.3617 29.0676 16.8956 28.9405 16.5566 29.1948C16.2176 29.3642 16.1329 29.8303 16.3448 30.2117ZM14.5227 31.3558C14.7346 31.6947 15.2007 31.8219 15.5397 31.5676C15.8787 31.3558 16.0058 30.8897 15.7515 30.5507C15.5397 30.2117 15.0736 30.0846 14.7346 30.3388C14.3956 30.5507 14.3109 31.0168 14.5227 31.3558Z" fill="#ED7864"/>
<path d="M17.3305 3.30512C17.5 -0.0423393 20.2542 2.58193e-05 20.5508 2.58193e-05C20.8051 2.58193e-05 23.6017 -0.0423393 23.7712 3.30512C23.7712 3.30512 24.322 8.30511 20.5932 8.34748C20.5932 8.34748 20.5932 8.34748 20.5508 8.34748C20.5508 8.34748 20.5508 8.34748 20.5085 8.34748C16.822 8.30511 17.3305 3.30512 17.3305 3.30512ZM13.7288 14.2373C13.7288 14.0254 13.7288 13.7712 13.7288 13.5593V13.4746C13.7712 12.4153 13.983 11.6526 15.0424 10.9746C16.483 10.0424 18.1356 9.27969 18.1356 9.27969L19.4491 13.3898L20.2118 11.2288C18.8983 9.36442 20.2966 9.27969 20.5508 9.27969C20.8051 9.27969 22.2457 9.36442 20.8898 11.2288L21.6525 13.3898L22.9661 9.27969C22.9661 9.27969 24.5763 10.0848 26.0593 10.9746C27.161 11.6526 27.3729 12.4153 27.3729 13.4746V13.5593C27.3729 13.7712 27.3729 13.9831 27.3729 14.2373C27.3729 14.2373 27.3729 14.1949 27.3729 14.1526V17.1187H20.5508H13.7288V14.1526C13.7288 14.1949 13.7288 14.2373 13.7288 14.2373ZM27.3729 13.4746C27.3729 13.4322 27.3729 13.4322 27.3729 13.4746V13.4746ZM13.7288 13.4746C13.7288 13.4322 13.7288 13.4322 13.7288 13.4746V13.4746ZM34.3644 31.2288C34.4067 31.2288 34.4067 31.2288 34.3644 31.2288C34.4067 31.2288 34.4067 31.2288 34.4067 31.2288C38.1356 31.1864 37.5847 26.1865 37.5847 26.1865C37.4152 22.839 34.661 22.8814 34.3644 22.8814C34.1101 22.8814 31.3135 22.839 31.144 26.1865C31.1864 26.1865 30.6356 31.1864 34.3644 31.2288ZM27.5847 37.1186C27.5847 36.9068 27.5847 36.6525 27.5847 36.4407V36.3559C27.6271 35.2966 27.839 34.5339 28.8983 33.8559C30.339 32.9237 31.9915 32.161 31.9915 32.161L33.3051 36.2712L34.0678 34.1102C32.7542 32.2458 34.1525 32.161 34.4067 32.161C34.661 32.161 36.1017 32.2458 34.7457 34.1102L35.5084 36.2712L36.822 32.161C36.822 32.161 38.4322 32.9661 39.9152 33.8559C41.0169 34.5339 41.2288 35.2966 41.2288 36.3559V36.4407C41.2288 36.6525 41.2288 36.8644 41.2288 37.1186C41.2288 37.1186 41.2288 37.0763 41.2288 37.0339V40H34.4067H27.5847V37.0339C27.5847 37.0763 27.5847 37.1186 27.5847 37.1186ZM41.2288 36.3559C41.2288 36.3136 41.2288 36.3136 41.2288 36.3559V36.3559ZM27.5847 36.3559C27.5847 36.3136 27.5847 36.3136 27.5847 36.3559V36.3559ZM6.82203 31.2288C6.8644 31.2288 6.8644 31.2288 6.8644 31.2288C10.5932 31.1864 10.0424 26.1865 10.0424 26.1865C9.87287 22.839 7.11864 22.8814 6.82203 22.8814C6.56779 22.8814 3.77118 22.839 3.60169 26.1865C3.64406 26.1865 3.09322 31.1864 6.82203 31.2288ZM0 37.1186C0 36.9068 0 36.6525 0 36.4407V36.3559C0.0423728 35.2966 0.25424 34.5339 1.31356 33.8559C2.75424 32.9237 4.40678 32.161 4.40678 32.161L5.72033 36.2712L6.48305 34.1102C5.16949 32.2458 6.56779 32.161 6.82203 32.161C7.07627 32.161 8.51695 32.2458 7.16101 34.1102L7.92372 36.2712L9.23728 32.161C9.23728 32.161 10.8475 32.9661 12.3305 33.8559C13.4322 34.5339 13.6441 35.2966 13.6441 36.3559V36.4407C13.6441 36.6525 13.6441 36.8644 13.6441 37.1186C13.6441 37.1186 13.6441 37.0763 13.6441 37.0339V40H6.82203H0V37.0339C0 37.0763 0 37.1186 0 37.1186ZM13.6441 36.3559C13.6441 36.3136 13.6441 36.3136 13.6441 36.3559V36.3559ZM0 36.3559C0 36.3136 0 36.3136 0 36.3559V36.3559Z" fill="#27A9E1"/>
</svg>
