<svg width="41" height="40" viewBox="0 0 41 40" fill="none" xmlns="http://www.w3.org/2000/svg">
<path fill-rule="evenodd" clip-rule="evenodd" d="M33.3688 25.0437C33.9633 25.1957 34.5242 25.431 35.0391 25.7363L37.1298 24.2226L38.8029 25.8957L37.2892 27.9864C37.5945 28.5013 37.8298 29.0622 37.9818 29.6567L40.5299 30.0648V32.4305L37.9823 32.8385C37.8303 33.433 37.595 33.9939 37.2896 34.5088L38.8034 36.5996L37.1303 38.2726L35.0395 36.7589C34.5247 37.0642 33.9638 37.2996 33.3692 37.4515L32.9612 39.9996H30.5955L30.1875 37.452C29.5929 37.3 29.032 37.0647 28.5172 36.7594L26.4264 38.2731L24.7533 36.6L26.2671 34.5093C25.9617 33.9944 25.7269 33.4335 25.5744 32.8389L23.0264 32.4309V30.0652L25.5744 29.6572C25.7264 29.0627 25.9617 28.5017 26.2671 27.9869L24.7533 25.8961L26.4264 24.223L28.5172 25.7368C29.032 25.4314 29.5929 25.1961 30.1875 25.0441L30.5955 22.4965H32.9612L33.3688 25.0437ZM31.3231 27.1064C33.3586 27.1064 35.0091 28.7564 35.0091 30.7919C35.0091 32.8274 33.3591 34.4775 31.3231 34.4775C29.2876 34.4775 27.6376 32.8274 27.6376 30.7919C27.6371 28.7564 29.2872 27.1064 31.3231 27.1064Z" fill="#ED7864"/>
<path fill-rule="evenodd" clip-rule="evenodd" d="M25.4696 4.42607V2.86905C25.4696 1.29084 24.1788 0 22.6006 0H14.0349C12.4567 0 11.1658 1.2913 11.1658 2.86905V4.42607H13.7056V2.86905C13.7056 2.69313 13.8589 2.53978 14.0349 2.53978H22.6006C22.7765 2.53978 22.9298 2.69313 22.9298 2.86905V4.42607H25.4696ZM1.63255 18.3476V28.7775C1.63255 30.2521 2.83912 31.4587 4.31371 31.4587H21.8458V29.6074L24.7033 29.1501C24.753 29.0202 24.8065 28.8918 24.8631 28.7651L23.1661 26.4211L26.4215 23.1656L28.7656 24.8626C28.8927 24.806 29.0212 24.7526 29.1506 24.7028L29.6079 21.8458H34.2117L34.669 24.7028C34.7814 24.7461 34.8928 24.7917 35.0029 24.8401V18.3476C34.9587 18.3767 34.9145 18.4048 34.8698 18.4333C32.5124 19.9249 27.8261 20.8303 22.6406 21.1508C22.2823 23.214 20.4831 24.783 18.3177 24.783C16.1523 24.783 14.3531 23.214 13.9948 21.1508C8.80978 20.8308 4.12397 19.9249 1.76564 18.4328C1.72097 18.4048 1.67676 18.3762 1.63255 18.3476ZM34.168 17.3239C32.0178 18.6843 27.5977 19.5201 22.6692 19.8268C22.391 17.6721 20.5485 16.0064 18.3177 16.0064C16.086 16.0064 14.243 17.6734 13.9658 19.8291C9.04511 19.5247 4.62916 18.6917 2.46748 17.3239C2.17274 17.1374 1.89182 16.9389 1.63255 16.7257C0.668217 15.9341 0 14.9453 0 13.6476V7.11184C0 6.3552 0.617099 5.7381 1.37374 5.7381H8.09597V10.2052C8.09597 10.86 8.36354 11.455 8.79412 11.8856C9.22471 12.3162 9.81971 12.5838 10.4746 12.5838H26.1609C26.8157 12.5838 27.4107 12.3162 27.8413 11.8856C28.2719 11.455 28.5395 10.86 28.5395 10.2052V5.7381H35.2617C36.0183 5.7381 36.6354 6.3552 36.6354 7.11184V13.648C36.6354 14.9458 35.9672 15.9345 35.0024 16.7262C34.7431 16.9389 34.4627 17.1374 34.168 17.3239ZM27.227 5.7381H9.408V10.2052C9.408 10.4976 9.5282 10.7642 9.72161 10.9577C9.91503 11.1511 10.1817 11.2713 10.4741 11.2713H26.1604C26.4528 11.2713 26.7195 11.1511 26.9129 10.9577C27.1063 10.7642 27.2265 10.4976 27.2265 10.2052V5.7381H27.227ZM15.2419 20.3947C15.2419 18.7013 16.6133 17.3188 18.3177 17.3188C20.0216 17.3188 21.3935 18.7013 21.3935 20.3947C21.3935 22.0935 20.0166 23.4705 18.3177 23.4705C16.6189 23.47 15.2419 22.0931 15.2419 20.3947Z" fill="#27A9E1"/>
</svg>
